<svg id="Layer_1" data-name="Layer 1" xmlns="http://www.w3.org/2000/svg" viewBox="0 0 112.54 71.14"><defs><style>.cls-1{fill:#58595b;fill-rule:evenodd;}</style></defs><title>123-01</title><path class="cls-1" d="M4707.73,3657.44h-53a1.27,1.27,0,0,0-.9.37h0a1.28,1.28,0,0,0-.37.91v68.58a1.27,1.27,0,0,0,1.27,1.28h53V3726h-7.42l-0.49-.76L4688.66,3708l-0.82-1.26,1.18-.93,18.7-14.72v-3.25l-19.85,15.63-1.43,1.12-1-1.53-10.91-16.92a1.27,1.27,0,0,0-.43-0.41,1.27,1.27,0,0,0-1.16-.07h0a1.28,1.28,0,0,0-.47.36h0L4659,3702.5l-2.94,3.59V3660h51.71v-2.55h0Zm-51.33,52.22,15.52-18.94,1.44-1.76,1.23,1.91,21,32.59,1.65,2.55H4656v-15.9Z" transform="translate(-4653.47 -3657.44)"/><path class="cls-1" d="M4695,3684.16a9.12,9.12,0,1,0-6.44-2.67,9.09,9.09,0,0,0,6.44,2.67h0Zm0-15.68a6.54,6.54,0,0,1,4.63,1.92h0A6.56,6.56,0,1,1,4695,3668.48Z" transform="translate(-4653.47 -3657.44)"/><path class="cls-1" d="M4717.27,3657.56v9.56H4719a1.38,1.38,0,0,1,.92.24,0.88,0.88,0,0,1,0,1.26,1.38,1.38,0,0,1-.92.24h-5.27a1.36,1.36,0,0,1-.92-0.24,0.83,0.83,0,0,1-.27-0.64,0.8,0.8,0,0,1,.27-0.63,1.4,1.4,0,0,1,.92-0.24h1.76v-7.28l-1.56.41a2.41,2.41,0,0,1-.56.1,0.76,0.76,0,0,1-.58-0.26,0.93,0.93,0,0,1-.24-0.65,0.79,0.79,0,0,1,.18-0.55,1.59,1.59,0,0,1,.75-0.35l3.75-1h0Zm12.89,0.28v6.84a1.4,1.4,0,0,1,.92.24,0.8,0.8,0,0,1,.27.63,0.83,0.83,0,0,1-.27.64,1.36,1.36,0,0,1-.92.24v0.7a1.38,1.38,0,0,1,.92.24,0.88,0.88,0,0,1,0,1.26,1.38,1.38,0,0,1-.92.24h-2.43a1.36,1.36,0,0,1-.92-0.24,0.82,0.82,0,0,1-.27-0.64,0.8,0.8,0,0,1,.27-0.63,1.4,1.4,0,0,1,.92-0.24h0.68v-0.7h-4.75V3665l4.18-7.13h2.31Zm-1.75,6.84v-4.36l-2.56,4.36h2.56Zm8.74-1.78a5,5,0,0,1,1.2-.77,3.12,3.12,0,0,1,1.22-.24A3.23,3.23,0,0,1,4742,3663a3.81,3.81,0,0,1,1,2.73,3.3,3.3,0,0,1-1,2.46,3.56,3.56,0,0,1-2.6.94,3.76,3.76,0,0,1-2.26-.64,3.86,3.86,0,0,1-1.34-2,9.19,9.19,0,0,1-.45-3,5.61,5.61,0,0,1,.9-3.26,6.73,6.73,0,0,1,2.1-2,4.94,4.94,0,0,1,2.56-.72,2.81,2.81,0,0,1,1.65.42,0.86,0.86,0,0,1,.38.72,0.87,0.87,0,0,1-.26.64,0.83,0.83,0,0,1-.61.26,1.39,1.39,0,0,1-.59-0.21,0.94,0.94,0,0,0-.44-0.12,3.69,3.69,0,0,0-1.73.47,4.3,4.3,0,0,0-1.55,1.45,4.73,4.73,0,0,0-.66,1.7h0Zm0.26,2.7a2.62,2.62,0,0,0,.74,1.39,2.06,2.06,0,0,0,1.33.38,1.83,1.83,0,0,0,1.33-.45,1.62,1.62,0,0,0,.47-1.22,2.1,2.1,0,0,0-.53-1.47,1.59,1.59,0,0,0-1.2-.59,1.78,1.78,0,0,0-1.13.52,3.85,3.85,0,0,0-1,1.45h0Zm16.42-3.22v1.91a6,6,0,0,1-1,3.26,3.15,3.15,0,0,1-2.82,1.56,3.26,3.26,0,0,1-1.79-.47,4.39,4.39,0,0,1-1.38-1.71,5.64,5.64,0,0,1-.65-2.64v-1.91a6,6,0,0,1,1-3.26,3.14,3.14,0,0,1,2.81-1.56,3.29,3.29,0,0,1,1.78.46,4.41,4.41,0,0,1,1.39,1.71,5.6,5.6,0,0,1,.66,2.65h0Zm-1.74,0a4,4,0,0,0-.8-2.49,1.52,1.52,0,0,0-1.27-.59,1.58,1.58,0,0,0-1.3.65,3.83,3.83,0,0,0-.76,2.43v1.91a4,4,0,0,0,.81,2.49,1.5,1.5,0,0,0,1.27.59,1.57,1.57,0,0,0,1.29-.65,3.83,3.83,0,0,0,.76-2.43v-1.91h0Zm11.62,0.89a3.5,3.5,0,0,1,1,1.18,3.29,3.29,0,0,1-.09,3.07,2.92,2.92,0,0,1-1.35,1.16,4.77,4.77,0,0,1-2,.43,4.66,4.66,0,0,1-2-.43,2.92,2.92,0,0,1-1.33-1.17,3.28,3.28,0,0,1-.09-3.07,3.48,3.48,0,0,1,1-1.18,3.9,3.9,0,0,1-.89-1.16,2.88,2.88,0,0,1-.3-1.29,3.05,3.05,0,0,1,1-2.3,4,4,0,0,1,5.23,0,3.05,3.05,0,0,1,1,2.3,3,3,0,0,1-.29,1.3,3.73,3.73,0,0,1-.89,1.15h0Zm-0.61-2.41a1.43,1.43,0,0,0-.5-1.1,1.94,1.94,0,0,0-1.36-.46,2,2,0,0,0-1.37.46,1.47,1.47,0,0,0,0,2.21,2,2,0,0,0,1.37.46,1.94,1.94,0,0,0,1.36-.46,1.44,1.44,0,0,0,.5-1.11h0Zm0.21,5.13a1.69,1.69,0,0,0-.59-1.25,2.19,2.19,0,0,0-2.93,0,1.71,1.71,0,0,0-.59,1.27,1.19,1.19,0,0,0,.51,1,3.13,3.13,0,0,0,3.09,0,1.21,1.21,0,0,0,.5-1h0Zm-44.19,15.21a1,1,0,0,1,.65-0.28,0.79,0.79,0,0,1,.62.27,1.31,1.31,0,0,1,.24.89v1.12a1.3,1.3,0,0,1-.24.89,0.81,0.81,0,0,1-.63.26,0.92,0.92,0,0,1-.6-0.21,1.17,1.17,0,0,1-.28-0.63,1.06,1.06,0,0,0-.49-0.72,3.48,3.48,0,0,0-1.77-.4,2.72,2.72,0,0,0-2,.72,2.45,2.45,0,0,0-.75,1.83,2,2,0,0,0,.72,1.61,3.74,3.74,0,0,0,2.38.59,5.94,5.94,0,0,0,1.78-.22,2.2,2.2,0,0,0,.78-0.46,1.06,1.06,0,0,1,.66-0.33,0.83,0.83,0,0,1,.61.26,0.86,0.86,0,0,1,.26.62,1.41,1.41,0,0,1-.79,1.1,6.3,6.3,0,0,1-3.44.77,5.22,5.22,0,0,1-3.17-.84,3.65,3.65,0,0,1-1.53-3.1,4.15,4.15,0,0,1,1.24-3.09,4.43,4.43,0,0,1,3.25-1.22,6.28,6.28,0,0,1,1.35.13,4.69,4.69,0,0,1,1.15.41h0Zm12.87,4.45h-7.17a2.25,2.25,0,0,0,1,1.1,3.64,3.64,0,0,0,1.88.42,10.77,10.77,0,0,0,2.59-.42,4.48,4.48,0,0,1,.92-0.17,0.78,0.78,0,0,1,.59.25,0.86,0.86,0,0,1,.24.62,0.76,0.76,0,0,1-.26.58,4.13,4.13,0,0,1-1.66.6,12.12,12.12,0,0,1-2.54.28,4.69,4.69,0,0,1-3.35-1.19,3.84,3.84,0,0,1-1.26-2.91,3.75,3.75,0,0,1,1.36-3,4.7,4.7,0,0,1,3.13-1.15,5,5,0,0,1,2,.38,4.1,4.1,0,0,1,1.33.81,5.05,5.05,0,0,1,1,1.56,3.81,3.81,0,0,1,.27,1.5v0.74h0Zm-1.94-1.74a2.76,2.76,0,0,0-1-1.13,3.37,3.37,0,0,0-3.08,0,2.81,2.81,0,0,0-1.06,1.13H4730Zm6.58-6.32v3.91a5.26,5.26,0,0,1,1.3-.63,4.39,4.39,0,0,1,1.33-.21,4.2,4.2,0,0,1,3.07,1.25,4.11,4.11,0,0,1,1.26,3,3.75,3.75,0,0,1-1.2,2.84,4.41,4.41,0,0,1-3.16,1.14,5,5,0,0,1-1.35-.18,5.42,5.42,0,0,1-1.25-.54v0.44h-2a1.36,1.36,0,0,1-.92-0.24,0.83,0.83,0,0,1-.27-0.64,0.8,0.8,0,0,1,.27-0.63,1.4,1.4,0,0,1,.92-0.24h0.3v-7.56h-0.3a1.36,1.36,0,0,1-.92-0.24,0.83,0.83,0,0,1-.27-0.64,0.8,0.8,0,0,1,.27-0.63,1.4,1.4,0,0,1,.92-0.24h2Zm5.22,7.4a2.5,2.5,0,0,0-.76-1.84,2.66,2.66,0,0,0-3.7,0,2.47,2.47,0,0,0-.76,1.81,2,2,0,0,0,.68,1.58,3.3,3.3,0,0,0,3.85,0,2,2,0,0,0,.69-1.56h0Zm10-5.64h-4a1.4,1.4,0,0,1-.24.92,0.8,0.8,0,0,1-.63.27,0.83,0.83,0,0,1-.64-0.27,1.37,1.37,0,0,1-.24-0.92v-1.74h7.59v1.74l-2.83,8.41a1.54,1.54,0,0,1-.4.7,0.81,0.81,0,0,1-.52.17,0.87,0.87,0,0,1-.63-0.25,0.78,0.78,0,0,1-.26-0.58,2.31,2.31,0,0,1,.14-0.61l2.67-7.85h0Zm7.2-1.76v3.91a5.26,5.26,0,0,1,1.3-.63,4.39,4.39,0,0,1,1.33-.21,4.2,4.2,0,0,1,3.07,1.25,4.11,4.11,0,0,1,1.26,3,3.75,3.75,0,0,1-1.2,2.84,4.41,4.41,0,0,1-3.16,1.14,5.05,5.05,0,0,1-1.35-.18,5.41,5.41,0,0,1-1.25-.54v0.44h-2a1.37,1.37,0,0,1-.92-0.24,0.83,0.83,0,0,1-.27-0.64,0.8,0.8,0,0,1,.27-0.63,1.4,1.4,0,0,1,.92-0.24h0.3v-7.56H4757a1.37,1.37,0,0,1-.92-0.24,0.83,0.83,0,0,1-.27-0.64,0.8,0.8,0,0,1,.27-0.63,1.4,1.4,0,0,1,.92-0.24h2Zm5.22,7.4a2.5,2.5,0,0,0-.76-1.84,2.66,2.66,0,0,0-3.7,0,2.47,2.47,0,0,0-.76,1.81,2,2,0,0,0,.68,1.58,3.3,3.3,0,0,0,3.85,0,2,2,0,0,0,.69-1.56h0Zm-45.42,17.82a3.5,3.5,0,0,1,1,1.18,3.29,3.29,0,0,1-.09,3.07,2.92,2.92,0,0,1-1.35,1.16,4.77,4.77,0,0,1-2,.43,4.66,4.66,0,0,1-2-.43,2.92,2.92,0,0,1-1.33-1.17,3.28,3.28,0,0,1-.09-3.07,3.49,3.49,0,0,1,1-1.18,3.91,3.91,0,0,1-.89-1.16,2.88,2.88,0,0,1-.3-1.29,3.05,3.05,0,0,1,1-2.3,4,4,0,0,1,5.23,0,3.05,3.05,0,0,1,1,2.3,3,3,0,0,1-.29,1.3,3.74,3.74,0,0,1-.89,1.15h0Zm-0.61-2.41a1.43,1.43,0,0,0-.5-1.1,1.94,1.94,0,0,0-1.36-.46,2,2,0,0,0-1.37.46,1.47,1.47,0,0,0,0,2.21,2,2,0,0,0,1.37.46,1.94,1.94,0,0,0,1.36-.46,1.44,1.44,0,0,0,.5-1.11h0Zm0.21,5.13a1.69,1.69,0,0,0-.59-1.25,2.19,2.19,0,0,0-2.93,0,1.71,1.71,0,0,0-.59,1.27,1.19,1.19,0,0,0,.51,1,3.13,3.13,0,0,0,3.09,0,1.21,1.21,0,0,0,.5-1h0Zm11.65-3a3.62,3.62,0,0,1,1.16,1.22,3.14,3.14,0,0,1-1.59,4.45,6.6,6.6,0,0,1-2.52.4,5.91,5.91,0,0,1-3-.63,1,1,0,0,1-.57-0.85,0.89,0.89,0,0,1,.25-0.63,0.83,0.83,0,0,1,.61-0.26,0.94,0.94,0,0,1,.51.17,2.23,2.23,0,0,0,.71.34,6.57,6.57,0,0,0,1.4.12,4.6,4.6,0,0,0,2.21-.4,1.23,1.23,0,0,0,.68-1.12,1.63,1.63,0,0,0-.4-1,2.56,2.56,0,0,0-1.06-.77,4.74,4.74,0,0,0-1.29-.21,1,1,0,0,1-.67-0.27,0.83,0.83,0,0,1-.23-0.6,0.85,0.85,0,0,1,.26-0.63,0.88,0.88,0,0,1,.65-0.25h0.92a1.78,1.78,0,0,0,.68-0.22,1.48,1.48,0,0,0,.55-0.52,1.24,1.24,0,0,0,.21-0.68,1.22,1.22,0,0,0-.49-1,2.26,2.26,0,0,0-1.47-.4,2.46,2.46,0,0,0-1.92.73,1.31,1.31,0,0,1-.31.27,0.86,0.86,0,0,1-.4.09,0.82,0.82,0,0,1-.61-0.26,0.85,0.85,0,0,1-.26-0.63,1.5,1.5,0,0,1,.78-1.15,4.8,4.8,0,0,1,2.85-.81,3.64,3.64,0,0,1,2.6.92,2.94,2.94,0,0,1,1,2.22,2.77,2.77,0,0,1-.29,1.26,3.43,3.43,0,0,1-.87,1.08h0Zm11.29-5.2v6.84a1.4,1.4,0,0,1,.92.24,0.8,0.8,0,0,1,.27.63,0.83,0.83,0,0,1-.27.64,1.37,1.37,0,0,1-.92.24v0.7a1.38,1.38,0,0,1,.92.24,0.88,0.88,0,0,1,0,1.26,1.38,1.38,0,0,1-.92.24H4739a1.37,1.37,0,0,1-.92-0.24,0.82,0.82,0,0,1-.27-0.64,0.8,0.8,0,0,1,.27-0.63,1.4,1.4,0,0,1,.92-0.24h0.68V3706h-4.75v-1.46l4.18-7.13h2.31Zm-1.74,6.84v-4.36l-2.56,4.36h2.56Zm13-6.84v6.84a1.4,1.4,0,0,1,.92.24,0.8,0.8,0,0,1,.27.63,0.83,0.83,0,0,1-.27.64,1.36,1.36,0,0,1-.92.24v0.7a1.38,1.38,0,0,1,.92.24,0.88,0.88,0,0,1,0,1.26,1.38,1.38,0,0,1-.92.24h-2.43a1.37,1.37,0,0,1-.92-0.24,0.83,0.83,0,0,1-.27-0.64,0.8,0.8,0,0,1,.27-0.63,1.4,1.4,0,0,1,.92-0.24h0.68V3706h-4.75v-1.46l4.18-7.13h2.31Zm-1.74,6.84v-4.36l-2.56,4.36h2.56Z" transform="translate(-4653.47 -3657.44)"/><path class="cls-1" d="M4763.71,3703.81a4.88,4.88,0,0,1-1.2.8,2.92,2.92,0,0,1-1.15.23,3.27,3.27,0,0,1-2.46-1.12,3.94,3.94,0,0,1-1.05-2.79,4.13,4.13,0,0,1,.72-2.36,3.17,3.17,0,0,1,2.78-1.47,3.48,3.48,0,0,1,2.25.77,4.42,4.42,0,0,1,1.41,2.22,10.16,10.16,0,0,1,.45,3,5.19,5.19,0,0,1-2.06,4.29,5.58,5.58,0,0,1-3.5,1.24,2.73,2.73,0,0,1-1.63-.42,0.87,0.87,0,0,1-.39-0.74,0.85,0.85,0,0,1,.87-0.88,1.05,1.05,0,0,1,.46.13,1.51,1.51,0,0,0,.7.17,3.8,3.8,0,0,0,2.44-.9,3.72,3.72,0,0,0,1.38-2.19h0Zm-0.24-2.75a3.34,3.34,0,0,0-.83-1.72,1.81,1.81,0,0,0-1.26-.51,1.65,1.65,0,0,0-1.26.57,2.14,2.14,0,0,0-.52,1.5,2.33,2.33,0,0,0,.52,1.59,1.56,1.56,0,0,0,1.2.6q1.19,0,2.15-2h0Zm-42.7,24.12h-7.17a2.25,2.25,0,0,0,1,1.1,3.63,3.63,0,0,0,1.88.42,10.75,10.75,0,0,0,2.59-.42,4.48,4.48,0,0,1,.92-0.17,0.78,0.78,0,0,1,.59.25,0.86,0.86,0,0,1,.24.62,0.76,0.76,0,0,1-.26.58,4.13,4.13,0,0,1-1.66.6,12.12,12.12,0,0,1-2.54.28,4.69,4.69,0,0,1-3.35-1.19,3.84,3.84,0,0,1-1.26-2.91,3.75,3.75,0,0,1,1.36-3,4.7,4.7,0,0,1,3.13-1.15,5,5,0,0,1,2,.38,4.1,4.1,0,0,1,1.33.81,5.05,5.05,0,0,1,1,1.56,3.81,3.81,0,0,1,.27,1.5v0.74h0Zm-1.94-1.74a2.76,2.76,0,0,0-1-1.13,3.37,3.37,0,0,0-3.08,0,2.82,2.82,0,0,0-1.06,1.13h5.18Zm11.5-2.7a1,1,0,0,1,.65-0.28,0.8,0.8,0,0,1,.62.27,1.31,1.31,0,0,1,.24.89v1.12a1.3,1.3,0,0,1-.24.89,0.81,0.81,0,0,1-.63.26,0.92,0.92,0,0,1-.6-0.21,1.17,1.17,0,0,1-.28-0.63,1.06,1.06,0,0,0-.49-0.72,3.48,3.48,0,0,0-1.77-.4,2.72,2.72,0,0,0-2,.72,2.45,2.45,0,0,0-.75,1.83,2,2,0,0,0,.72,1.61,3.75,3.75,0,0,0,2.38.59,5.94,5.94,0,0,0,1.78-.22,2.2,2.2,0,0,0,.78-0.46,1.06,1.06,0,0,1,.66-0.33,0.83,0.83,0,0,1,.61.26,0.85,0.85,0,0,1,.26.62,1.41,1.41,0,0,1-.79,1.1,6.3,6.3,0,0,1-3.44.77,5.23,5.23,0,0,1-3.17-.84,3.65,3.65,0,0,1-1.53-3.1,4.15,4.15,0,0,1,1.24-3.09,4.43,4.43,0,0,1,3.25-1.22,6.3,6.3,0,0,1,1.35.13,4.7,4.7,0,0,1,1.15.41h0Zm11,1.6a3.61,3.61,0,0,1,1.16,1.22,3.13,3.13,0,0,1,.38,1.55,3.09,3.09,0,0,1-.51,1.71,3.13,3.13,0,0,1-1.47,1.19,6.59,6.59,0,0,1-2.52.4,5.91,5.91,0,0,1-3-.63,1,1,0,0,1-.57-0.85,0.89,0.89,0,0,1,.25-0.63,0.83,0.83,0,0,1,.61-0.26,0.94,0.94,0,0,1,.51.17,2.23,2.23,0,0,0,.71.34,6.57,6.57,0,0,0,1.4.12,4.6,4.6,0,0,0,2.21-.4,1.23,1.23,0,0,0,.68-1.12,1.63,1.63,0,0,0-.4-1,2.56,2.56,0,0,0-1.06-.77,4.72,4.72,0,0,0-1.29-.21,1,1,0,0,1-.67-0.27,0.83,0.83,0,0,1-.23-0.6,0.85,0.85,0,0,1,.26-0.63,0.87,0.87,0,0,1,.65-0.25h0.92a1.78,1.78,0,0,0,.68-0.22,1.48,1.48,0,0,0,.55-0.52,1.24,1.24,0,0,0,.21-0.68,1.22,1.22,0,0,0-.49-1,2.26,2.26,0,0,0-1.47-.4,2.46,2.46,0,0,0-1.92.73,1.32,1.32,0,0,1-.31.27,0.87,0.87,0,0,1-.4.09,0.82,0.82,0,0,1-.61-0.26,0.85,0.85,0,0,1-.26-0.63,1.5,1.5,0,0,1,.78-1.15,4.8,4.8,0,0,1,2.85-.81,3.64,3.64,0,0,1,2.6.92,2.94,2.94,0,0,1,1,2.22,2.77,2.77,0,0,1-.29,1.26,3.42,3.42,0,0,1-.87,1.08h0Zm11.22,0a3.61,3.61,0,0,1,1.16,1.22,3.13,3.13,0,0,1,.38,1.55,3.09,3.09,0,0,1-.51,1.71,3.13,3.13,0,0,1-1.47,1.19,6.59,6.59,0,0,1-2.52.4,5.91,5.91,0,0,1-3-.63,1,1,0,0,1-.57-0.85,0.89,0.89,0,0,1,.25-0.63,0.83,0.83,0,0,1,.61-0.26,0.94,0.94,0,0,1,.51.17,2.23,2.23,0,0,0,.71.34,6.57,6.57,0,0,0,1.4.12,4.6,4.6,0,0,0,2.21-.4,1.23,1.23,0,0,0,.68-1.12,1.63,1.63,0,0,0-.4-1,2.56,2.56,0,0,0-1.06-.77,4.72,4.72,0,0,0-1.29-.21,1,1,0,0,1-.67-0.27,0.83,0.83,0,0,1-.23-0.6,0.85,0.85,0,0,1,.26-0.63,0.87,0.87,0,0,1,.65-0.25h0.92a1.78,1.78,0,0,0,.68-0.22,1.48,1.48,0,0,0,.55-0.52,1.24,1.24,0,0,0,.21-0.68,1.22,1.22,0,0,0-.49-1,2.26,2.26,0,0,0-1.47-.4,2.46,2.46,0,0,0-1.92.73,1.33,1.33,0,0,1-.31.27,0.87,0.87,0,0,1-.4.09,0.82,0.82,0,0,1-.61-0.26,0.85,0.85,0,0,1-.26-0.63,1.5,1.5,0,0,1,.78-1.15,4.8,4.8,0,0,1,2.85-.81,3.64,3.64,0,0,1,2.6.92,2.94,2.94,0,0,1,1,2.22,2.77,2.77,0,0,1-.29,1.26A3.43,3.43,0,0,1,4752.52,3722.34Z" transform="translate(-4653.47 -3657.44)"/></svg>