<?xml version="1.0" standalone="no"?>
<!DOCTYPE svg PUBLIC "-//W3C//DTD SVG 20010904//EN"
 "http://www.w3.org/TR/2001/REC-SVG-20010904/DTD/svg10.dtd">
<svg version="1.0" xmlns="http://www.w3.org/2000/svg"
 width="600.000000pt" height="600.000000pt" viewBox="0 0 600.000000 600.000000"
 preserveAspectRatio="xMidYMid meet">
<metadata>
Created by potrace 1.11, written by Peter Selinger 2001-2013
</metadata>
<g transform="translate(0.000000,600.000000) scale(0.100000,-0.100000)"
fill="#000000" stroke="none">
<path d="M0 3000 l0 -3000 3000 0 3000 0 0 3000 0 3000 -3000 0 -3000 0 0
-3000z m3502 1382 c193 -47 323 -118 439 -240 130 -136 183 -272 182 -472 0
-134 -17 -210 -70 -318 -42 -86 -138 -194 -224 -251 -33 -22 -60 -43 -60 -47
0 -4 21 -17 48 -28 191 -84 329 -199 395 -329 50 -101 70 -195 69 -342 0 -225
-54 -367 -191 -506 -115 -116 -248 -185 -452 -234 -176 -41 -259 -45 -1038
-45 l-740 0 0 1421 0 1420 778 -4 c751 -3 780 -4 864 -25z"/>
<path d="M2470 3560 l0 -302 368 5 c389 4 414 7 517 57 118 57 170 190 133
338 -16 65 -93 142 -173 173 -59 23 -68 24 -452 27 l-393 3 0 -301z"/>
<path d="M2470 2429 l0 -310 458 4 c387 3 464 6 503 19 150 52 217 129 227
259 12 178 -82 285 -286 325 -56 11 -172 14 -488 14 l-414 0 0 -311z"/>
</g>
</svg>
