<svg id="Layer_1" data-name="Layer 1" xmlns="http://www.w3.org/2000/svg" viewBox="0 0 190.7 80.77"><title>123-02</title><path d="M383.16,368.14L366.83,395l16.33,9.31L399.49,395l-16.33-26.87h0ZM366.83,395l16.33-7.56L399.49,395m-16.33-26.87v36.19m-16.66-3.08,16.66,23.38,16.66-23.38-16.66,9.5-16.66-9.5h0Zm16.66,9.5v13.88" transform="translate(-210 -356)" style="fill:none;stroke:#4b4b4d;stroke-linecap:round;stroke-linejoin:round;stroke-width:1.7498300075531006px"/><polyline points="106.29 80.06 100.89 74.67 106.29 69.27" style="fill:none;stroke:#4b4b4d;stroke-miterlimit:2.613126039505005;stroke-width:1.9998400211334229px"/><path d="M229,387.22a8.8,8.8,0,0,0,6.23-2.58h0a8.8,8.8,0,0,0,0-12.46h0a8.81,8.81,0,1,0-6.23,15h0Zm30.28-26.13H245.53V363h12.78V406.6l-3.42-3.8-10.78-12a1,1,0,0,0-.63-0.32,1,1,0,0,0-.69.2L222,407.06l-1.69,1.33-1.17-1.82-7.38-11.44-1.64,1.06,19.69,30.52,2,3,1.25,1.94h26.24a1,1,0,0,0,.69-0.28h0a1,1,0,0,0,.28-0.69V397.4h11.43V363.12H297.5v-2H270.67a1,1,0,0,0-.71.29h0a1,1,0,0,0-.29.71v33.27h-9.41V362.07a1,1,0,0,0-1-1h0Zm105.17,0H350.66a1,1,0,0,0-.71.29h0a1,1,0,0,0-.29.71v33.27H338.22v34.28H312.4v2h26.83a1,1,0,0,0,.71-0.3h0a1,1,0,0,0,.3-0.71V397.4h9.41v33.27a1,1,0,0,0,.29.71h0a1,1,0,0,0,.71.3h13.79v-2H351.67V363.12h12.78v-2h0ZM229,371.54a6.87,6.87,0,1,1-4.85,11.73h0a6.85,6.85,0,0,1,0-9.71h0a6.85,6.85,0,0,1,4.85-2h0Zm4.52,57.29-11.16-17.3-1-1.5,1.4-1.11,19-15,1.44-1.14,1.23,1.37,13.3,14.77,0.51,0.56v20.22h-24.2l-0.58-.91h0Z" transform="translate(-210 -356)" style="fill:#4b4b4d;stroke:#58595b;stroke-miterlimit:2.613126039505005;stroke-width:0.2160000056028366px"/><path d="M285.19,377.45a2.39,2.39,0,0,1,.69.81,2.25,2.25,0,0,1-.06,2.1,2,2,0,0,1-.92.8,3.27,3.27,0,0,1-1.4.29,3.19,3.19,0,0,1-1.38-.29,2,2,0,0,1-.91-0.8,2.25,2.25,0,0,1-.06-2.1,2.39,2.39,0,0,1,.69-0.81,2.67,2.67,0,0,1-.61-0.79,2,2,0,0,1-.21-0.88,2.09,2.09,0,0,1,.7-1.57,2.76,2.76,0,0,1,3.58,0,2.09,2.09,0,0,1,.7,1.57,2,2,0,0,1-.2.89,2.54,2.54,0,0,1-.61.79h0Zm-0.42-1.65a1,1,0,0,0-.34-0.75,1.33,1.33,0,0,0-.93-0.31,1.35,1.35,0,0,0-.94.31,1,1,0,0,0,0,1.51,1.35,1.35,0,0,0,.94.31,1.33,1.33,0,0,0,.93-0.31,1,1,0,0,0,.34-0.76h0Zm0.14,3.51a1.16,1.16,0,0,0-.4-0.86,1.5,1.5,0,0,0-2,0,1.17,1.17,0,0,0-.4.87,0.81,0.81,0,0,0,.35.65,2.15,2.15,0,0,0,2.11,0,0.83,0.83,0,0,0,.34-0.67h0Zm10.95-2a2.47,2.47,0,0,1,.79.84,2.15,2.15,0,0,1,.26,1.06,2.12,2.12,0,0,1-1.35,2,4.52,4.52,0,0,1-1.73.28,4,4,0,0,1-2.09-.43,0.7,0.7,0,0,1-.39-0.58,0.61,0.61,0,0,1,.17-0.43,0.57,0.57,0,0,1,.42-0.18,0.65,0.65,0,0,1,.35.12,1.5,1.5,0,0,0,.48.23,4.5,4.5,0,0,0,1,.08,3.14,3.14,0,0,0,1.51-.27,0.84,0.84,0,0,0,.47-0.77,1.12,1.12,0,0,0-.27-0.71,1.75,1.75,0,0,0-.73-0.53,3.27,3.27,0,0,0-.88-0.15,0.66,0.66,0,0,1-.46-0.18,0.57,0.57,0,0,1-.16-0.41,0.58,0.58,0,0,1,.18-0.43,0.6,0.6,0,0,1,.44-0.17h0.63a1.22,1.22,0,0,0,.47-0.15,1,1,0,0,0,.37-0.35,0.85,0.85,0,0,0,.14-0.46,0.83,0.83,0,0,0-.33-0.66,1.55,1.55,0,0,0-1-.28,1.68,1.68,0,0,0-1.32.5,0.92,0.92,0,0,1-.21.19,0.59,0.59,0,0,1-.27.06,0.56,0.56,0,0,1-.42-0.18,0.58,0.58,0,0,1-.18-0.43,1,1,0,0,1,.54-0.78,3.28,3.28,0,0,1,2-.56,2.49,2.49,0,0,1,1.78.63,2,2,0,0,1,.67,1.52,1.89,1.89,0,0,1-.2.86,2.32,2.32,0,0,1-.59.74h0Zm10.7-3.56v4.68a1,1,0,0,1,.63.16,0.55,0.55,0,0,1,.18.43,0.56,0.56,0,0,1-.18.44,0.93,0.93,0,0,1-.63.17v0.48a0.94,0.94,0,0,1,.63.17,0.6,0.6,0,0,1,0,.86,1,1,0,0,1-.63.17H304.9a0.93,0.93,0,0,1-.63-0.17,0.56,0.56,0,0,1-.18-0.44,0.55,0.55,0,0,1,.18-0.43,1,1,0,0,1,.63-0.16h0.47v-0.48h-3.25v-1l2.86-4.88h1.58Zm-1.19,4.68v-3l-1.75,3h1.75Zm11.85-4.68v4.68a1,1,0,0,1,.63.16,0.55,0.55,0,0,1,.18.43,0.56,0.56,0,0,1-.18.44,0.93,0.93,0,0,1-.63.17v0.48a1,1,0,0,1,.63.17,0.6,0.6,0,0,1,0,.86,1,1,0,0,1-.63.17h-1.66a0.93,0.93,0,0,1-.63-0.17,0.57,0.57,0,0,1-.18-0.44,0.55,0.55,0,0,1,.18-0.43,1,1,0,0,1,.63-0.16H316v-0.48h-3.25v-1l2.86-4.88h1.58Zm-1.2,4.68v-3l-1.75,3H316Zm11.77-.27a3.33,3.33,0,0,1-.82.54,2,2,0,0,1-.79.16,2.24,2.24,0,0,1-1.68-.77,2.7,2.7,0,0,1-.72-1.91,2.82,2.82,0,0,1,.49-1.62,2.17,2.17,0,0,1,1.9-1,2.38,2.38,0,0,1,1.54.53,3,3,0,0,1,1,1.52,7,7,0,0,1,.31,2.07,3.55,3.55,0,0,1-1.41,2.94,3.82,3.82,0,0,1-2.4.85,1.87,1.87,0,0,1-1.12-.29,0.6,0.6,0,0,1-.27-0.51,0.59,0.59,0,0,1,.6-0.6,0.72,0.72,0,0,1,.31.09,1,1,0,0,0,.48.12,2.6,2.6,0,0,0,1.67-.61,2.54,2.54,0,0,0,.95-1.5h0Zm-0.17-1.88a2.29,2.29,0,0,0-.57-1.17,1.24,1.24,0,0,0-.86-0.35,1.13,1.13,0,0,0-.86.39,1.46,1.46,0,0,0-.36,1,1.6,1.6,0,0,0,.36,1.09,1.07,1.07,0,0,0,.82.41q0.81,0,1.47-1.39h0Zm-42.36,10.06V391a1,1,0,0,1,.63.16,0.54,0.54,0,0,1,.18.43,0.56,0.56,0,0,1-.18.44,0.93,0.93,0,0,1-.63.17v0.48a0.94,0.94,0,0,1,.63.17,0.6,0.6,0,0,1,0,.86,0.94,0.94,0,0,1-.63.17H283.6a0.93,0.93,0,0,1-.63-0.17,0.56,0.56,0,0,1-.18-0.44,0.55,0.55,0,0,1,.18-0.43,1,1,0,0,1,.63-0.16h0.47V392.2h-3.25v-1l2.87-4.88h1.58ZM284.07,391v-3l-1.75,3h1.75Zm12.69-1.57v1.31a4.11,4.11,0,0,1-.68,2.23,2.15,2.15,0,0,1-1.93,1.07,2.23,2.23,0,0,1-1.22-.32,3,3,0,0,1-.95-1.17,3.87,3.87,0,0,1-.45-1.81v-1.31a4.12,4.12,0,0,1,.67-2.23,2.15,2.15,0,0,1,1.93-1.07,2.24,2.24,0,0,1,1.22.32,3,3,0,0,1,1,1.17,3.83,3.83,0,0,1,.45,1.82h0Zm-1.19,0a2.76,2.76,0,0,0-.55-1.7,1,1,0,0,0-.87-0.4,1.08,1.08,0,0,0-.89.44,2.62,2.62,0,0,0-.52,1.66v1.31a2.72,2.72,0,0,0,.55,1.7,1,1,0,0,0,.87.4,1.08,1.08,0,0,0,.89-0.44,2.62,2.62,0,0,0,.52-1.66v-1.31h0Zm10.95,0.45a2.46,2.46,0,0,1,.79.84,2.15,2.15,0,0,1-1.09,3,4.52,4.52,0,0,1-1.73.28,4,4,0,0,1-2.09-.43A0.69,0.69,0,0,1,302,393a0.61,0.61,0,0,1,.17-0.43,0.57,0.57,0,0,1,.42-0.18,0.65,0.65,0,0,1,.35.12,1.52,1.52,0,0,0,.48.23,4.54,4.54,0,0,0,1,.08,3.15,3.15,0,0,0,1.51-.27,0.84,0.84,0,0,0,.47-0.77,1.12,1.12,0,0,0-.27-0.71,1.76,1.76,0,0,0-.72-0.53,3.27,3.27,0,0,0-.88-0.15,0.66,0.66,0,0,1-.46-0.18,0.57,0.57,0,0,1-.16-0.41,0.58,0.58,0,0,1,.18-0.43,0.6,0.6,0,0,1,.44-0.17h0.63a1.22,1.22,0,0,0,.47-0.15,1,1,0,0,0,.37-0.35,0.85,0.85,0,0,0,.14-0.46,0.83,0.83,0,0,0-.33-0.66,1.55,1.55,0,0,0-1-.28,1.69,1.69,0,0,0-1.32.5,0.94,0.94,0,0,1-.21.19,0.6,0.6,0,0,1-.28.06,0.56,0.56,0,0,1-.42-0.18,0.59,0.59,0,0,1-.17-0.43,1,1,0,0,1,.54-0.78,3.29,3.29,0,0,1,2-.56,2.49,2.49,0,0,1,1.78.63,2,2,0,0,1,.67,1.52,1.89,1.89,0,0,1-.2.86,2.35,2.35,0,0,1-.59.74h0Zm8.93-.11v2.9h1.71a0.94,0.94,0,0,1,.63.17,0.6,0.6,0,0,1,0,.86,0.94,0.94,0,0,1-.63.17h-3.62a0.93,0.93,0,0,1-.63-0.17,0.57,0.57,0,0,1-.18-0.44,0.55,0.55,0,0,1,.18-0.43,1,1,0,0,1,.63-0.16h0.72v-2.9h-0.57a0.93,0.93,0,0,1-.63-0.17,0.56,0.56,0,0,1-.18-0.44,0.54,0.54,0,0,1,.18-0.43,1,1,0,0,1,.63-0.16h0.57v-0.46a1.66,1.66,0,0,1,.59-1.3,2.5,2.5,0,0,1,1.7-.52,8.29,8.29,0,0,1,1.15.09,1.76,1.76,0,0,1,.84.25,0.54,0.54,0,0,1,.18.42,0.62,0.62,0,0,1-.16.45,0.54,0.54,0,0,1-.4.17l-0.33,0a6.74,6.74,0,0,0-1.32-.15,1.37,1.37,0,0,0-.82.18,0.54,0.54,0,0,0-.23.44v0.46h1.84a1,1,0,0,1,.63.17,0.6,0.6,0,0,1,0,.86,1,1,0,0,1-.63.17h-1.84Zm13.66,2.05H324.2a1.54,1.54,0,0,0,.67.75,2.48,2.48,0,0,0,1.29.29,7.38,7.38,0,0,0,1.77-.29,3,3,0,0,1,.63-0.12,0.53,0.53,0,0,1,.4.17,0.59,0.59,0,0,1,.16.43,0.52,0.52,0,0,1-.18.4,2.82,2.82,0,0,1-1.14.41,8.27,8.27,0,0,1-1.74.2,3.21,3.21,0,0,1-2.29-.81,2.62,2.62,0,0,1-.86-2,2.57,2.57,0,0,1,.93-2.05,3.21,3.21,0,0,1,2.14-.79,3.4,3.4,0,0,1,1.34.26,2.81,2.81,0,0,1,.91.55,3.46,3.46,0,0,1,.7,1.07,2.61,2.61,0,0,1,.19,1v0.51h0Zm-1.33-1.19a1.88,1.88,0,0,0-.72-0.77,2.3,2.3,0,0,0-2.11,0,1.92,1.92,0,0,0-.72.77h3.55Zm-42.41,10.73a0.67,0.67,0,0,1,.44-0.19,0.54,0.54,0,0,1,.42.18,0.9,0.9,0,0,1,.17.61v0.77a0.89,0.89,0,0,1-.17.61,0.56,0.56,0,0,1-.43.18,0.63,0.63,0,0,1-.41-0.14,0.8,0.8,0,0,1-.19-0.43,0.73,0.73,0,0,0-.34-0.49,2.38,2.38,0,0,0-1.21-.27,1.87,1.87,0,0,0-1.36.5,1.68,1.68,0,0,0-.51,1.25,1.36,1.36,0,0,0,.49,1.1,2.56,2.56,0,0,0,1.63.41,4.07,4.07,0,0,0,1.22-.15,1.51,1.51,0,0,0,.53-0.32,0.72,0.72,0,0,1,.45-0.23,0.57,0.57,0,0,1,.42.18,0.59,0.59,0,0,1,.18.42,1,1,0,0,1-.54.75,4.31,4.31,0,0,1-2.36.53,3.58,3.58,0,0,1-2.17-.58,2.5,2.5,0,0,1-1-2.12,2.84,2.84,0,0,1,.85-2.11,3,3,0,0,1,2.22-.84,4.3,4.3,0,0,1,.92.09,3.2,3.2,0,0,1,.79.28h0Zm10.49,1.1a2.46,2.46,0,0,1,.79.84,2.15,2.15,0,0,1,.26,1.06,2.12,2.12,0,0,1-1.35,2,4.49,4.49,0,0,1-1.73.28,4,4,0,0,1-2.09-.43,0.7,0.7,0,0,1-.39-0.58,0.61,0.61,0,0,1,.17-0.43,0.56,0.56,0,0,1,.42-0.18,0.64,0.64,0,0,1,.35.12,1.52,1.52,0,0,0,.48.23,4.47,4.47,0,0,0,1,.08,3.14,3.14,0,0,0,1.51-.27,0.84,0.84,0,0,0,.47-0.76,1.12,1.12,0,0,0-.27-0.71,1.75,1.75,0,0,0-.73-0.53,3.21,3.21,0,0,0-.88-0.15,0.66,0.66,0,0,1-.46-0.18,0.57,0.57,0,0,1-.16-0.41,0.58,0.58,0,0,1,.18-0.43,0.6,0.6,0,0,1,.44-0.17h0.63a1.22,1.22,0,0,0,.47-0.15,1,1,0,0,0,.37-0.35,0.85,0.85,0,0,0,.14-0.46,0.83,0.83,0,0,0-.33-0.66,1.55,1.55,0,0,0-1-.28,1.68,1.68,0,0,0-1.32.5,0.94,0.94,0,0,1-.21.19,0.6,0.6,0,0,1-.27.06,0.56,0.56,0,0,1-.42-0.18,0.58,0.58,0,0,1-.18-0.43,1,1,0,0,1,.54-0.78,3.28,3.28,0,0,1,2-.56,2.49,2.49,0,0,1,1.78.63,2,2,0,0,1,.67,1.52,1.9,1.9,0,0,1-.2.86,2.35,2.35,0,0,1-.59.74h0Zm10.65,0a2.46,2.46,0,0,1,.79.84,2.14,2.14,0,0,1,.26,1.06,2.12,2.12,0,0,1-1.35,2,4.49,4.49,0,0,1-1.73.28,4.05,4.05,0,0,1-2.09-.43,0.7,0.7,0,0,1-.39-0.58,0.61,0.61,0,0,1,.17-0.43,0.56,0.56,0,0,1,.42-0.18,0.64,0.64,0,0,1,.35.12,1.51,1.51,0,0,0,.48.23,4.48,4.48,0,0,0,1,.08,3.14,3.14,0,0,0,1.51-.27,0.84,0.84,0,0,0,.47-0.76,1.13,1.13,0,0,0-.27-0.71,1.76,1.76,0,0,0-.72-0.53,3.22,3.22,0,0,0-.88-0.15,0.66,0.66,0,0,1-.46-0.18,0.57,0.57,0,0,1-.16-0.41,0.58,0.58,0,0,1,.18-0.43,0.6,0.6,0,0,1,.44-0.17h0.63a1.21,1.21,0,0,0,.47-0.15,1,1,0,0,0,.37-0.35,0.85,0.85,0,0,0,.14-0.46,0.83,0.83,0,0,0-.33-0.66,1.55,1.55,0,0,0-1-.28,1.68,1.68,0,0,0-1.32.5,0.92,0.92,0,0,1-.21.19,0.6,0.6,0,0,1-.28.06,0.56,0.56,0,0,1-.42-0.18,0.59,0.59,0,0,1-.17-0.43,1,1,0,0,1,.54-0.78,3.29,3.29,0,0,1,2-.56,2.49,2.49,0,0,1,1.78.63,2,2,0,0,1,.67,1.52,1.89,1.89,0,0,1-.2.86,2.35,2.35,0,0,1-.59.74h0Zm7.44-3.57v2.67a3.58,3.58,0,0,1,.89-0.43,3,3,0,0,1,.91-0.14,2.87,2.87,0,0,1,2.1.86,2.81,2.81,0,0,1,.86,2.07,2.57,2.57,0,0,1-.82,1.94,3,3,0,0,1-2.17.78,3.48,3.48,0,0,1-.92-0.12,3.7,3.7,0,0,1-.86-0.37v0.3h-1.4a0.93,0.93,0,0,1-.63-0.17,0.56,0.56,0,0,1-.18-0.44,0.55,0.55,0,0,1,.18-0.43,1,1,0,0,1,.63-0.16h0.2v-5.17h-0.2a0.94,0.94,0,0,1-.63-0.17,0.57,0.57,0,0,1-.18-0.44,0.54,0.54,0,0,1,.18-0.43,1,1,0,0,1,.63-0.16H314Zm3.57,5.07a1.71,1.71,0,0,0-.52-1.26,1.82,1.82,0,0,0-2.54,0,1.69,1.69,0,0,0-.52,1.24,1.4,1.4,0,0,0,.47,1.08,2.26,2.26,0,0,0,2.64,0,1.37,1.37,0,0,0,.47-1.07h0ZM328.71,402v1.31a4.11,4.11,0,0,1-.68,2.23,2.15,2.15,0,0,1-1.93,1.07,2.23,2.23,0,0,1-1.22-.32,3,3,0,0,1-.95-1.17,3.86,3.86,0,0,1-.45-1.81V402a4.13,4.13,0,0,1,.67-2.23,2.15,2.15,0,0,1,1.93-1.07,2.25,2.25,0,0,1,1.22.31,3,3,0,0,1,1,1.17,3.83,3.83,0,0,1,.45,1.81h0Zm-1.2,0a2.76,2.76,0,0,0-.54-1.7,1,1,0,0,0-.87-0.4,1.08,1.08,0,0,0-.89.44,2.62,2.62,0,0,0-.52,1.66v1.31a2.72,2.72,0,0,0,.55,1.7,1,1,0,0,0,.87.4A1.08,1.08,0,0,0,327,405a2.62,2.62,0,0,0,.52-1.66V402h0ZM285.19,415.9a3.35,3.35,0,0,1-.82.55,2,2,0,0,1-.79.16,2.24,2.24,0,0,1-1.68-.77,2.69,2.69,0,0,1-.72-1.91,2.82,2.82,0,0,1,.49-1.62,2.17,2.17,0,0,1,1.9-1,2.38,2.38,0,0,1,1.54.53,3,3,0,0,1,1,1.52,7,7,0,0,1,.31,2.07,3.55,3.55,0,0,1-1.41,2.94,3.82,3.82,0,0,1-2.4.85,1.87,1.87,0,0,1-1.12-.29,0.6,0.6,0,0,1-.27-0.51,0.59,0.59,0,0,1,.6-0.6,0.72,0.72,0,0,1,.31.09,1,1,0,0,0,.48.12,2.61,2.61,0,0,0,1.67-.62,2.55,2.55,0,0,0,.95-1.5h0ZM285,414a2.28,2.28,0,0,0-.57-1.17,1.23,1.23,0,0,0-.86-0.35,1.13,1.13,0,0,0-.86.39,1.46,1.46,0,0,0-.36,1,1.6,1.6,0,0,0,.36,1.08,1.07,1.07,0,0,0,.82.41q0.81,0,1.47-1.39h0Zm10.82,1.88a3.35,3.35,0,0,1-.82.55,2,2,0,0,1-.79.16,2.24,2.24,0,0,1-1.68-.77,2.7,2.7,0,0,1-.72-1.91,2.82,2.82,0,0,1,.49-1.62,2.17,2.17,0,0,1,1.9-1,2.38,2.38,0,0,1,1.54.53,3,3,0,0,1,1,1.52,7,7,0,0,1,.31,2.07,3.55,3.55,0,0,1-1.41,2.94,3.82,3.82,0,0,1-2.4.85,1.87,1.87,0,0,1-1.12-.29,0.6,0.6,0,0,1-.27-0.51,0.59,0.59,0,0,1,.6-0.6,0.71,0.71,0,0,1,.31.09,1,1,0,0,0,.48.12,2.61,2.61,0,0,0,1.67-.62,2.54,2.54,0,0,0,.95-1.5h0ZM295.67,414a2.29,2.29,0,0,0-.57-1.17,1.24,1.24,0,0,0-.86-0.35,1.13,1.13,0,0,0-.86.39,1.46,1.46,0,0,0-.36,1,1.59,1.59,0,0,0,.36,1.08,1.06,1.06,0,0,0,.82.41q0.81,0,1.47-1.39h0Zm8,0.94a3.35,3.35,0,0,1,.82-0.53,2.13,2.13,0,0,1,.83-0.17A2.21,2.21,0,0,1,307,415a2.61,2.61,0,0,1,.71,1.87,2.26,2.26,0,0,1-.66,1.69,2.43,2.43,0,0,1-1.78.64,2.57,2.57,0,0,1-1.55-.44,2.64,2.64,0,0,1-.92-1.35,6.29,6.29,0,0,1-.31-2,3.84,3.84,0,0,1,.61-2.23,4.61,4.61,0,0,1,1.44-1.38,3.38,3.38,0,0,1,1.75-.49,1.93,1.93,0,0,1,1.13.29,0.59,0.59,0,0,1,.26.49,0.6,0.6,0,0,1-.18.44,0.57,0.57,0,0,1-.42.18,1,1,0,0,1-.4-0.14,0.64,0.64,0,0,0-.3-0.08,2.52,2.52,0,0,0-1.19.32,3,3,0,0,0-1.06,1,3.25,3.25,0,0,0-.45,1.17h0Zm0.18,1.85a1.8,1.8,0,0,0,.51,1,1.41,1.41,0,0,0,.91.26,1.25,1.25,0,0,0,.91-0.31,1.11,1.11,0,0,0,.32-0.84,1.44,1.44,0,0,0-.36-1,1.09,1.09,0,0,0-.82-0.4,1.22,1.22,0,0,0-.77.35,2.63,2.63,0,0,0-.68,1h0Zm12.85-4.12H314a1,1,0,0,1-.16.63,0.55,0.55,0,0,1-.43.18,0.57,0.57,0,0,1-.44-0.18,0.94,0.94,0,0,1-.17-0.63v-1.19H318v1.19L316,418.44a1,1,0,0,1-.27.48,0.56,0.56,0,0,1-.36.12,0.6,0.6,0,0,1-.43-0.17,0.53,0.53,0,0,1-.18-0.39,1.59,1.59,0,0,1,.09-0.42l1.83-5.37h0Z" transform="translate(-210 -356)" style="fill:#4b4b4d;stroke:#58595b;stroke-miterlimit:2.613126039505005;stroke-width:0.2160000056028366px"/><path d="M328,413.95a0.67,0.67,0,0,1,.44-0.19,0.54,0.54,0,0,1,.42.18,0.89,0.89,0,0,1,.17.61v0.77a0.89,0.89,0,0,1-.17.61,0.56,0.56,0,0,1-.43.18A0.63,0.63,0,0,1,328,416a0.8,0.8,0,0,1-.19-0.43,0.73,0.73,0,0,0-.34-0.49,2.38,2.38,0,0,0-1.21-.27,1.86,1.86,0,0,0-1.36.5,1.67,1.67,0,0,0-.51,1.25,1.36,1.36,0,0,0,.49,1.1,2.56,2.56,0,0,0,1.63.41,4.08,4.08,0,0,0,1.22-.15,1.52,1.52,0,0,0,.53-0.32,0.72,0.72,0,0,1,.45-0.23,0.56,0.56,0,0,1,.42.18,0.58,0.58,0,0,1,.18.42,1,1,0,0,1-.54.75,4.31,4.31,0,0,1-2.35.53,3.58,3.58,0,0,1-2.17-.58,2.5,2.5,0,0,1-1-2.12,2.84,2.84,0,0,1,.85-2.11,3,3,0,0,1,2.22-.84,4.3,4.3,0,0,1,.92.09,3.21,3.21,0,0,1,.79.28h0Z" transform="translate(-210 -356)" style="fill:#4b4b4d;stroke:#58595b;stroke-miterlimit:2.613126039505005;stroke-width:0.2160000056028366px"/><polyline points="83.11 0.71 88.5 6.11 83.11 11.51" style="fill:none;stroke:#4b4b4d;stroke-miterlimit:2.613126039505005;stroke-width:1.9998400211334229px"/></svg>