<svg id="Layer_1" data-name="Layer 1" xmlns="http://www.w3.org/2000/svg" viewBox="0 0 74.35 83.14"><defs><style>.cls-1{fill:#58595b;fill-rule:evenodd;}</style></defs><title>123-03</title><path class="cls-1" d="M5233.32,3657.66H5305a1.33,1.33,0,0,1,1.33,1.33v68.56a1.33,1.33,0,0,1-1.33,1.33h-7.58v-2.65h6.26v-65.91h-69v65.91h39v2.65h-40.33a1.33,1.33,0,0,1-1.33-1.33V3659A1.33,1.33,0,0,1,5233.32,3657.66Z" transform="translate(-5232 -3657.66)"/><path class="cls-1" d="M5293.75,3740.72a1.23,1.23,0,0,0,1.63-1.16V3721.7a15.11,15.11,0,0,1-2.45,1.72V3737l-0.81-.64-5.81-4.65a1.24,1.24,0,0,0-1.53,0l-5.81,4.65-0.81.64v-13.6a15.1,15.1,0,0,1-2.45-1.72v17.87a1.22,1.22,0,0,0,.27.77h0a1.22,1.22,0,0,0,.43.34,1.22,1.22,0,0,0,.94,0,1.21,1.21,0,0,0,.35-0.2h0l7.53-6,0.31-.25,0.31,0.25,7.53,6A1.22,1.22,0,0,0,5293.75,3740.72Z" transform="translate(-5232 -3657.66)"/><path class="cls-1" d="M5244.11,3665.8v7.41h1.37a1.07,1.07,0,0,1,.71.19,0.68,0.68,0,0,1,0,1,1.07,1.07,0,0,1-.71.19h-4.08a1.06,1.06,0,0,1-.71-0.19,0.64,0.64,0,0,1-.21-0.49,0.62,0.62,0,0,1,.21-0.49,1.09,1.09,0,0,1,.71-0.18h1.37v-5.64l-1.21.32a1.87,1.87,0,0,1-.43.08,0.58,0.58,0,0,1-.45-0.21,0.72,0.72,0,0,1-.19-0.5,0.61,0.61,0,0,1,.14-0.43,1.24,1.24,0,0,1,.58-0.27l2.9-.76h0Zm10,0.22v5.3a1.09,1.09,0,0,1,.71.18,0.62,0.62,0,0,1,.21.49,0.64,0.64,0,0,1-.21.49,1.06,1.06,0,0,1-.71.19v0.54a1.07,1.07,0,0,1,.71.19,0.68,0.68,0,0,1,0,1,1.07,1.07,0,0,1-.71.19h-1.88a1.06,1.06,0,0,1-.71-0.19,0.64,0.64,0,0,1-.21-0.49,0.62,0.62,0,0,1,.21-0.49,1.09,1.09,0,0,1,.71-0.18h0.53v-0.54h-3.68v-1.13l3.24-5.52h1.79Zm-1.35,5.3v-3.38l-2,3.38h2Zm6.77-1.38a3.86,3.86,0,0,1,.93-0.6,2.42,2.42,0,0,1,.94-0.19,2.5,2.5,0,0,1,1.87.84,3,3,0,0,1,.8,2.12,2.56,2.56,0,0,1-.74,1.91,2.75,2.75,0,0,1-2,.73,2.91,2.91,0,0,1-1.75-.5,3,3,0,0,1-1-1.52,7.12,7.12,0,0,1-.35-2.29,4.35,4.35,0,0,1,.69-2.52,5.21,5.21,0,0,1,1.63-1.56,3.83,3.83,0,0,1,2-.55,2.18,2.18,0,0,1,1.28.32,0.67,0.67,0,0,1,.3.56,0.68,0.68,0,0,1-.2.5,0.64,0.64,0,0,1-.48.2,1.08,1.08,0,0,1-.46-0.16,0.73,0.73,0,0,0-.34-0.09,2.85,2.85,0,0,0-1.34.37,3.33,3.33,0,0,0-1.2,1.12,3.68,3.68,0,0,0-.51,1.32h0Zm0.2,2.09a2,2,0,0,0,.57,1.08,1.6,1.6,0,0,0,1,.29,1.42,1.42,0,0,0,1-.35,1.26,1.26,0,0,0,.36-0.95,1.63,1.63,0,0,0-.41-1.14,1.23,1.23,0,0,0-.93-0.46,1.38,1.38,0,0,0-.88.4,3,3,0,0,0-.77,1.12h0Zm12.72-2.49V3671a4.65,4.65,0,0,1-.76,2.53,2.44,2.44,0,0,1-2.18,1.21,2.52,2.52,0,0,1-1.39-.36,3.41,3.41,0,0,1-1.07-1.33,4.37,4.37,0,0,1-.5-2v-1.48a4.67,4.67,0,0,1,.76-2.52,2.43,2.43,0,0,1,2.18-1.21,2.55,2.55,0,0,1,1.38.36,3.42,3.42,0,0,1,1.08,1.32,4.34,4.34,0,0,1,.51,2.06h0Zm-1.35,0a3.12,3.12,0,0,0-.62-1.93,1.17,1.17,0,0,0-1-.46,1.22,1.22,0,0,0-1,.5,3,3,0,0,0-.59,1.88V3671a3.08,3.08,0,0,0,.62,1.93,1.16,1.16,0,0,0,1,.46,1.22,1.22,0,0,0,1-.5,3,3,0,0,0,.59-1.88v-1.48h0Zm9,0.69a2.71,2.71,0,0,1,.78.91,2.55,2.55,0,0,1-.07,2.38,2.26,2.26,0,0,1-1,.9,3.7,3.7,0,0,1-1.58.33,3.61,3.61,0,0,1-1.57-.33,2.27,2.27,0,0,1-1-.9,2.54,2.54,0,0,1-.07-2.37,2.71,2.71,0,0,1,.78-0.91,3,3,0,0,1-.69-0.9,2.23,2.23,0,0,1-.23-1,2.37,2.37,0,0,1,.79-1.78,3.12,3.12,0,0,1,4.06,0,2.37,2.37,0,0,1,.79,1.78,2.3,2.3,0,0,1-.23,1,2.89,2.89,0,0,1-.69.89h0Zm-0.47-1.87a1.11,1.11,0,0,0-.39-0.85,1.51,1.51,0,0,0-1.05-.35,1.52,1.52,0,0,0-1.06.35,1.14,1.14,0,0,0,0,1.71,1.52,1.52,0,0,0,1.06.35,1.5,1.5,0,0,0,1.05-.35,1.12,1.12,0,0,0,.39-0.86h0Zm0.16,4a1.31,1.31,0,0,0-.46-1,1.69,1.69,0,0,0-2.27,0,1.32,1.32,0,0,0-.46,1,0.92,0.92,0,0,0,.39.74,2.43,2.43,0,0,0,2.39,0,0.94,0.94,0,0,0,.39-0.75h0Zm9-2.29a2.8,2.8,0,0,1,.9.95,2.43,2.43,0,0,1,.3,1.2,2.4,2.4,0,0,1-.39,1.32,2.43,2.43,0,0,1-1.14.92,5.11,5.11,0,0,1-2,.31,4.58,4.58,0,0,1-2.36-.49,0.79,0.79,0,0,1-.44-0.66,0.69,0.69,0,0,1,.19-0.49,0.64,0.64,0,0,1,.47-0.2,0.72,0.72,0,0,1,.39.13,1.74,1.74,0,0,0,.55.26,5.11,5.11,0,0,0,1.09.09,3.56,3.56,0,0,0,1.71-.31,1,1,0,0,0,.53-0.87,1.26,1.26,0,0,0-.31-0.8,2,2,0,0,0-.82-0.6,3.68,3.68,0,0,0-1-.16,0.75,0.75,0,0,1-.52-0.21,0.64,0.64,0,0,1-.18-0.46,0.66,0.66,0,0,1,.2-0.49,0.68,0.68,0,0,1,.5-0.2h0.72a1.39,1.39,0,0,0,.53-0.17,1.15,1.15,0,0,0,.42-0.4,1,1,0,0,0,.16-0.53,0.94,0.94,0,0,0-.38-0.75,1.75,1.75,0,0,0-1.14-.31,1.91,1.91,0,0,0-1.49.57,1,1,0,0,1-.24.21,0.67,0.67,0,0,1-.31.07,0.64,0.64,0,0,1-.47-0.2,0.66,0.66,0,0,1-.2-0.49,1.16,1.16,0,0,1,.61-0.89,3.72,3.72,0,0,1,2.21-.63,2.82,2.82,0,0,1,2,.71,2.28,2.28,0,0,1,.76,1.72,2.15,2.15,0,0,1-.23,1,2.66,2.66,0,0,1-.67.84h0Zm5.51,3.17h2.95a0.74,0.74,0,0,1,.46-0.2,0.63,0.63,0,0,1,.49.2,1.06,1.06,0,0,1,.18.7v0.65h-6.15v-1.43a52.93,52.93,0,0,0,4.41-3.88,1.32,1.32,0,0,0,.38-0.84,1.14,1.14,0,0,0-.43-0.87,1.66,1.66,0,0,0-1.15-.38,1.75,1.75,0,0,0-1.2.42,1.57,1.57,0,0,0-.4.67,0.78,0.78,0,0,1-.25.4,0.67,0.67,0,0,1-.4.12,0.66,0.66,0,0,1-.48-0.2,0.63,0.63,0,0,1-.2-0.46,2,2,0,0,1,.37-1,2.6,2.6,0,0,1,1.07-1,3.32,3.32,0,0,1,1.52-.36,2.92,2.92,0,0,1,2.1.78,2.5,2.5,0,0,1,.82,1.88,2.34,2.34,0,0,1-.23,1,5.49,5.49,0,0,1-1.12,1.33q-0.7.67-2.72,2.39h0Zm-48.78,10.91a0.75,0.75,0,0,1,.5-0.22,0.62,0.62,0,0,1,.48.21,1,1,0,0,1,.19.69v0.87a1,1,0,0,1-.19.69,0.63,0.63,0,0,1-.49.21,0.71,0.71,0,0,1-.47-0.16,0.91,0.91,0,0,1-.22-0.49,0.82,0.82,0,0,0-.38-0.56,2.69,2.69,0,0,0-1.37-.31,2.11,2.11,0,0,0-1.53.56,1.89,1.89,0,0,0-.58,1.42,1.54,1.54,0,0,0,.55,1.25,2.91,2.91,0,0,0,1.84.46,4.61,4.61,0,0,0,1.38-.17,1.71,1.71,0,0,0,.6-0.36,0.82,0.82,0,0,1,.51-0.25,0.64,0.64,0,0,1,.48.21,0.66,0.66,0,0,1,.2.48,1.09,1.09,0,0,1-.61.85,4.88,4.88,0,0,1-2.67.6,4,4,0,0,1-2.46-.65,2.83,2.83,0,0,1-1.19-2.4,3.21,3.21,0,0,1,1-2.39,3.43,3.43,0,0,1,2.51-.95,4.9,4.9,0,0,1,1,.1,3.65,3.65,0,0,1,.89.32h0Zm10,3.45h-5.56a1.74,1.74,0,0,0,.75.85,2.82,2.82,0,0,0,1.46.32,8.35,8.35,0,0,0,2-.33,3.46,3.46,0,0,1,.71-0.13,0.6,0.6,0,0,1,.46.19,0.66,0.66,0,0,1,.18.48,0.59,0.59,0,0,1-.2.45,3.19,3.19,0,0,1-1.29.47,9.38,9.38,0,0,1-2,.22,3.63,3.63,0,0,1-2.6-.92,3,3,0,0,1-1-2.26,2.91,2.91,0,0,1,1.05-2.32,3.64,3.64,0,0,1,2.43-.89,3.87,3.87,0,0,1,1.52.29,3.17,3.17,0,0,1,1,.63,3.91,3.91,0,0,1,.79,1.21,3,3,0,0,1,.21,1.16v0.57h0Zm-1.5-1.35a2.14,2.14,0,0,0-.81-0.87,2.61,2.61,0,0,0-2.39,0,2.18,2.18,0,0,0-.82.87h4Zm5.09-4.89v3a4.07,4.07,0,0,1,1-.48,3.4,3.4,0,0,1,1-.16,3.25,3.25,0,0,1,2.38,1,3.18,3.18,0,0,1,1,2.35,2.91,2.91,0,0,1-.93,2.2,3.42,3.42,0,0,1-2.45.88,3.9,3.9,0,0,1-1-.14,4.2,4.2,0,0,1-1-.41v0.34h-1.58a1.06,1.06,0,0,1-.71-0.19,0.64,0.64,0,0,1-.21-0.49,0.62,0.62,0,0,1,.21-0.49,1.09,1.09,0,0,1,.71-0.18h0.23v-5.85h-0.23a1.06,1.06,0,0,1-.71-0.19,0.64,0.64,0,0,1-.21-0.49,0.62,0.62,0,0,1,.21-0.49,1.09,1.09,0,0,1,.71-0.18h1.58Zm4,5.74a1.93,1.93,0,0,0-.59-1.42,2.06,2.06,0,0,0-2.87,0,1.91,1.91,0,0,0-.59,1.4,1.58,1.58,0,0,0,.53,1.23,2.56,2.56,0,0,0,3,0,1.56,1.56,0,0,0,.53-1.21h0Zm7.76-4.37h-3.11a1.09,1.09,0,0,1-.18.71,0.62,0.62,0,0,1-.49.21,0.64,0.64,0,0,1-.49-0.21,1.06,1.06,0,0,1-.19-0.71v-1.35h5.88v1.35l-2.19,6.51a1.19,1.19,0,0,1-.31.54,0.63,0.63,0,0,1-.41.13,0.68,0.68,0,0,1-.49-0.19,0.61,0.61,0,0,1-.2-0.45,1.78,1.78,0,0,1,.11-0.47l2.07-6.08h0Zm5.58-1.37v3a4.07,4.07,0,0,1,1-.48,3.4,3.4,0,0,1,1-.16,3.25,3.25,0,0,1,2.38,1,3.18,3.18,0,0,1,1,2.35,2.91,2.91,0,0,1-.93,2.2,3.41,3.41,0,0,1-2.45.88,3.9,3.9,0,0,1-1-.14,4.2,4.2,0,0,1-1-.41v0.34h-1.58a1.06,1.06,0,0,1-.71-0.19,0.64,0.64,0,0,1-.21-0.49,0.62,0.62,0,0,1,.21-0.49,1.09,1.09,0,0,1,.71-0.18h0.23v-5.85h-0.23a1.06,1.06,0,0,1-.71-0.19,0.64,0.64,0,0,1-.21-0.49,0.62,0.62,0,0,1,.21-0.49,1.09,1.09,0,0,1,.71-0.18h1.58Zm4,5.74a1.94,1.94,0,0,0-.59-1.42,2.06,2.06,0,0,0-2.87,0,1.91,1.91,0,0,0-.59,1.4,1.58,1.58,0,0,0,.53,1.23,2.56,2.56,0,0,0,3,0,1.56,1.56,0,0,0,.53-1.21h0Zm8.26-.73a3.75,3.75,0,0,1-.93.62,2.26,2.26,0,0,1-.89.18,2.54,2.54,0,0,1-1.9-.87,3.05,3.05,0,0,1-.82-2.17,3.2,3.2,0,0,1,.56-1.83,2.45,2.45,0,0,1,2.15-1.14,2.7,2.7,0,0,1,1.74.6,3.43,3.43,0,0,1,1.09,1.72,7.88,7.88,0,0,1,.35,2.34,4,4,0,0,1-1.6,3.33,4.32,4.32,0,0,1-2.71,1,2.12,2.12,0,0,1-1.27-.33,0.68,0.68,0,0,1-.3-0.57,0.66,0.66,0,0,1,.67-0.68,0.81,0.81,0,0,1,.36.1,1.17,1.17,0,0,0,.54.13,3,3,0,0,0,1.89-.7,2.88,2.88,0,0,0,1.07-1.7h0Zm-0.19-2.13a2.59,2.59,0,0,0-.64-1.33,1.4,1.4,0,0,0-1-.39,1.28,1.28,0,0,0-1,.44,1.66,1.66,0,0,0-.4,1.16,1.81,1.81,0,0,0,.41,1.23,1.21,1.21,0,0,0,.93.47q0.92,0,1.67-1.58h0Zm7.66-3.07v7.41h1.37a1.06,1.06,0,0,1,.71.19,0.68,0.68,0,0,1,0,1,1.07,1.07,0,0,1-.71.19h-4.08a1.06,1.06,0,0,1-.71-0.19,0.64,0.64,0,0,1-.21-0.49,0.62,0.62,0,0,1,.21-0.49,1.09,1.09,0,0,1,.71-0.18h1.37v-5.64l-1.21.32a1.87,1.87,0,0,1-.43.08,0.59,0.59,0,0,1-.45-0.21,0.72,0.72,0,0,1-.19-0.5,0.61,0.61,0,0,1,.14-0.43,1.24,1.24,0,0,1,.58-0.27l2.9-.76h0Zm-50.93,19.74a2.72,2.72,0,0,1,.78.92,2.55,2.55,0,0,1-.07,2.38,2.26,2.26,0,0,1-1,.9,3.69,3.69,0,0,1-1.58.33,3.6,3.6,0,0,1-1.57-.33,2.26,2.26,0,0,1-1-.9,2.54,2.54,0,0,1-.07-2.38,2.71,2.71,0,0,1,.78-0.92,3,3,0,0,1-.69-0.9,2.23,2.23,0,0,1-.23-1,2.36,2.36,0,0,1,.79-1.78,3.12,3.12,0,0,1,4.06,0,2.37,2.37,0,0,1,.79,1.78,2.3,2.3,0,0,1-.23,1,2.89,2.89,0,0,1-.69.89h0Zm-0.47-1.87a1.11,1.11,0,0,0-.39-0.85,1.51,1.51,0,0,0-1.05-.35,1.52,1.52,0,0,0-1.06.35,1.14,1.14,0,0,0,0,1.71,1.52,1.52,0,0,0,1.06.35,1.51,1.51,0,0,0,1.05-.35,1.12,1.12,0,0,0,.39-0.86h0Zm0.16,4a1.31,1.31,0,0,0-.45-1,1.7,1.7,0,0,0-2.27,0,1.33,1.33,0,0,0-.45,1,0.92,0.92,0,0,0,.39.74,2.43,2.43,0,0,0,2.39,0,0.94,0.94,0,0,0,.39-0.75h0Zm9-2.29a2.8,2.8,0,0,1,.9.95,2.42,2.42,0,0,1,.3,1.2,2.4,2.4,0,0,1-.39,1.33,2.42,2.42,0,0,1-1.14.92,5.1,5.1,0,0,1-2,.31,4.58,4.58,0,0,1-2.36-.49,0.79,0.79,0,0,1-.44-0.66,0.69,0.69,0,0,1,.19-0.49,0.64,0.64,0,0,1,.47-0.2,0.73,0.73,0,0,1,.39.13,1.74,1.74,0,0,0,.55.26,5.1,5.1,0,0,0,1.09.09,3.56,3.56,0,0,0,1.71-.31,1,1,0,0,0,.53-0.87,1.27,1.27,0,0,0-.31-0.8,2,2,0,0,0-.82-0.59,3.66,3.66,0,0,0-1-.16,0.75,0.75,0,0,1-.52-0.21,0.64,0.64,0,0,1-.18-0.46,0.66,0.66,0,0,1,.2-0.49,0.68,0.68,0,0,1,.5-0.2h0.72a1.38,1.38,0,0,0,.53-0.17,1.15,1.15,0,0,0,.42-0.4,1,1,0,0,0,.16-0.53,0.94,0.94,0,0,0-.38-0.75,1.75,1.75,0,0,0-1.14-.31,1.91,1.91,0,0,0-1.49.57,1,1,0,0,1-.24.21,0.67,0.67,0,0,1-.31.07,0.64,0.64,0,0,1-.47-0.2,0.66,0.66,0,0,1-.2-0.49,1.16,1.16,0,0,1,.61-0.89,3.72,3.72,0,0,1,2.21-.63,2.82,2.82,0,0,1,2,.71,2.28,2.28,0,0,1,.76,1.72,2.15,2.15,0,0,1-.23,1,2.65,2.65,0,0,1-.67.84h0Zm8.75-4v5.3a1.09,1.09,0,0,1,.71.18,0.62,0.62,0,0,1,.21.49,0.64,0.64,0,0,1-.21.49,1.06,1.06,0,0,1-.71.19v0.54a1.07,1.07,0,0,1,.71.19,0.68,0.68,0,0,1,0,1,1.07,1.07,0,0,1-.71.19h-1.88a1.06,1.06,0,0,1-.71-0.19,0.64,0.64,0,0,1-.21-0.49,0.62,0.62,0,0,1,.21-0.49,1.09,1.09,0,0,1,.71-0.18h0.53v-0.54h-3.68v-1.13l3.24-5.52h1.79Zm-1.35,5.3v-3.38l-2,3.38h2Z" transform="translate(-5232 -3657.66)"/><path class="cls-1" d="M5246.81,3718.2h-5.56a1.74,1.74,0,0,0,.75.85,2.82,2.82,0,0,0,1.46.32,8.33,8.33,0,0,0,2-.33,3.51,3.51,0,0,1,.71-0.13,0.61,0.61,0,0,1,.45.19,0.66,0.66,0,0,1,.18.48,0.59,0.59,0,0,1-.2.45,3.18,3.18,0,0,1-1.29.47,9.37,9.37,0,0,1-2,.22,3.63,3.63,0,0,1-2.6-.92,3,3,0,0,1-1-2.26,2.91,2.91,0,0,1,1.05-2.32,3.64,3.64,0,0,1,2.43-.89,3.86,3.86,0,0,1,1.52.29,3.18,3.18,0,0,1,1,.63,3.92,3.92,0,0,1,.79,1.21,2.94,2.94,0,0,1,.21,1.16v0.57h0Zm-1.5-1.35a2.13,2.13,0,0,0-.81-0.87,2.61,2.61,0,0,0-2.39,0,2.18,2.18,0,0,0-.82.87h4Zm8.91-2.1a0.76,0.76,0,0,1,.5-0.22,0.62,0.62,0,0,1,.48.21,1,1,0,0,1,.19.69v0.87a1,1,0,0,1-.19.69,0.63,0.63,0,0,1-.49.2,0.71,0.71,0,0,1-.47-0.16,0.91,0.91,0,0,1-.22-0.49,0.82,0.82,0,0,0-.38-0.56,2.7,2.7,0,0,0-1.37-.31,2.11,2.11,0,0,0-1.54.56,1.9,1.9,0,0,0-.58,1.42,1.53,1.53,0,0,0,.55,1.25,2.9,2.9,0,0,0,1.84.46,4.62,4.62,0,0,0,1.38-.17,1.71,1.71,0,0,0,.6-0.36,0.82,0.82,0,0,1,.51-0.25,0.64,0.64,0,0,1,.48.21,0.66,0.66,0,0,1,.2.48,1.09,1.09,0,0,1-.61.85,4.88,4.88,0,0,1-2.67.6,4,4,0,0,1-2.46-.65,2.83,2.83,0,0,1-1.19-2.4,3.22,3.22,0,0,1,1-2.39,3.44,3.44,0,0,1,2.52-.95,4.88,4.88,0,0,1,1,.1,3.65,3.65,0,0,1,.89.32h0Zm8.5,1.24a2.8,2.8,0,0,1,.9.95,2.42,2.42,0,0,1,.3,1.2,2.4,2.4,0,0,1-.39,1.32,2.42,2.42,0,0,1-1.14.92,5.11,5.11,0,0,1-2,.31,4.58,4.58,0,0,1-2.36-.49,0.79,0.79,0,0,1-.44-0.66,0.68,0.68,0,0,1,.19-0.49,0.64,0.64,0,0,1,.47-0.2,0.73,0.73,0,0,1,.39.13,1.73,1.73,0,0,0,.55.26,5.09,5.09,0,0,0,1.09.09,3.56,3.56,0,0,0,1.71-.31,1,1,0,0,0,.53-0.87,1.26,1.26,0,0,0-.31-0.8,2,2,0,0,0-.82-0.59,3.67,3.67,0,0,0-1-.16,0.75,0.75,0,0,1-.52-0.21,0.64,0.64,0,0,1-.18-0.46,0.66,0.66,0,0,1,.2-0.49,0.68,0.68,0,0,1,.5-0.2h0.72a1.39,1.39,0,0,0,.53-0.17,1.15,1.15,0,0,0,.42-0.4,1,1,0,0,0,.16-0.52,0.94,0.94,0,0,0-.38-0.75,1.75,1.75,0,0,0-1.14-.31,1.91,1.91,0,0,0-1.49.57,1,1,0,0,1-.24.21,0.68,0.68,0,0,1-.31.07,0.64,0.64,0,0,1-.47-0.2,0.66,0.66,0,0,1-.2-0.49,1.16,1.16,0,0,1,.61-0.89,3.72,3.72,0,0,1,2.21-.63,2.82,2.82,0,0,1,2,.71,2.28,2.28,0,0,1,.76,1.72,2.15,2.15,0,0,1-.23,1A2.66,2.66,0,0,1,5262.73,3716Z" transform="translate(-5232 -3657.66)"/><path class="cls-1" d="M5281.54,3706.29a5.66,5.66,0,1,1-1.66,4,5.64,5.64,0,0,1,1.66-4h0Zm-1.73,9.74a8.09,8.09,0,0,0,5.74,2.38h0a8.13,8.13,0,0,0,8.11-8.11h0A8.11,8.11,0,1,0,5279.81,3716Z" transform="translate(-5232 -3657.66)"/><path class="cls-1" d="M5301.09,3707.6c-0.05.17-.1,0.31-0.14,0.43s-0.15.42-.24,0.65-0.19.5-.26,0.71h0a2.51,2.51,0,0,0-.18,1.08,6.26,6.26,0,0,0,.43,1.42h0a7,7,0,0,1,.6,2.46,3.42,3.42,0,0,1,0,.5,3.16,3.16,0,0,1-.12.51,5.26,5.26,0,0,1-2.47,2.62h0a5.1,5.1,0,0,0-1.23,1h0a1.63,1.63,0,0,0-.15.26,3.67,3.67,0,0,0-.15.37c-0.1.29-.18,0.59-0.26,0.89h0c-0.07.27-.14,0.53-0.24,0.83a6,6,0,0,1-.52,1.2,3.45,3.45,0,0,1-.94,1.07h0a3.64,3.64,0,0,1-1.77.65,10.42,10.42,0,0,1-1.68,0h0a5.25,5.25,0,0,0-1.61.07,5,5,0,0,0-1.27.86h0a10.4,10.4,0,0,1-1.4,1,3.52,3.52,0,0,1-3.76,0,10.45,10.45,0,0,1-1.4-1c-0.25-.21-0.5-0.41-0.72-0.56h0a2.25,2.25,0,0,0-.54-0.3,5.25,5.25,0,0,0-1.61-.07h0a10.41,10.41,0,0,1-1.68,0,3.64,3.64,0,0,1-1.77-.65h0a5.24,5.24,0,0,1-1.72-3.13h0a5.24,5.24,0,0,0-.55-1.49h0a2.28,2.28,0,0,0-.46-0.44h0c-0.23-.17-0.49-0.35-0.77-0.52a10.54,10.54,0,0,1-1.38-1,3.73,3.73,0,0,1-1.09-1.6,3.6,3.6,0,0,1-.06-1.86,10.49,10.49,0,0,1,.51-1.62,3.11,3.11,0,0,0,0-3.18,10.47,10.47,0,0,1-.51-1.62,3.6,3.6,0,0,1,.06-1.86,3.73,3.73,0,0,1,1.09-1.6,10.53,10.53,0,0,1,1.38-1c0.27-.18.54-0.35,0.77-0.52h0a2.27,2.27,0,0,0,.46-0.44h0a5.24,5.24,0,0,0,.55-1.49h0a5.24,5.24,0,0,1,1.72-3.13h0a3.63,3.63,0,0,1,1.77-.65,10.41,10.41,0,0,1,1.68,0h0a5.25,5.25,0,0,0,1.61-.07h0a2.25,2.25,0,0,0,.54-0.3h0c0.22-.15.47-0.35,0.72-0.56a10.45,10.45,0,0,1,1.4-1,3.53,3.53,0,0,1,3.76,0,10.46,10.46,0,0,1,1.4,1h0a5,5,0,0,0,1.27.86,5.25,5.25,0,0,0,1.61.07h0a10.42,10.42,0,0,1,1.68,0,3.64,3.64,0,0,1,1.77.65,5.24,5.24,0,0,1,1.72,3.13h0c0.09,0.33.18,0.64,0.27,0.9a2.41,2.41,0,0,0,.28.59h0a5.09,5.09,0,0,0,1.23,1h0c0.34,0.22.7,0.46,1,.71a4.91,4.91,0,0,1,1,1,3.23,3.23,0,0,1,.59,1.39,3.91,3.91,0,0,1-.06,1.45c0,0.14-.07.29-0.12,0.45h0Zm-28.19.06,0,0.09h0l0.21,0.57h0q0.1,0.28.17,0.52a4.65,4.65,0,0,1,.22,1.93,8.72,8.72,0,0,1-.59,2.1,10.13,10.13,0,0,0-.36,1.08,1.22,1.22,0,0,0,0,.6h0a1.27,1.27,0,0,0,.41.5,9.76,9.76,0,0,0,1,.67h0a7,7,0,0,1,1.94,1.64h0a4.84,4.84,0,0,1,.62,1.19c0.15,0.4.26,0.8,0.36,1.19a3.6,3.6,0,0,0,.68,1.64h0a3.56,3.56,0,0,0,1.75.14h0a7,7,0,0,1,2.55.2A6.86,6.86,0,0,1,5284,3723h0a9.65,9.65,0,0,0,.95.71h0a1.3,1.3,0,0,0,.62.24,3.51,3.51,0,0,0,1.57-.94h0c0.31-.25.63-0.51,1-0.74h0a4.71,4.71,0,0,1,1.17-.59h0a4.92,4.92,0,0,1,1.33-.22c0.43,0,.84,0,1.25,0a3.56,3.56,0,0,0,1.75-.14h0a3.6,3.6,0,0,0,.68-1.64c0.11-.39.21-0.79,0.36-1.19a4.86,4.86,0,0,1,.61-1.19h0a4.79,4.79,0,0,1,.94-0.94c0.33-.26.68-0.48,1-0.7h0a3.52,3.52,0,0,0,1.36-1.17,1.21,1.21,0,0,0,0-.6,10.16,10.16,0,0,0-.36-1.08,5.6,5.6,0,0,1,0-5.11,10.15,10.15,0,0,0,.36-1.08,1.21,1.21,0,0,0,0-.6,3.53,3.53,0,0,0-1.36-1.17h0c-0.34-.22-0.68-0.44-1-0.7a4.39,4.39,0,0,1-1.55-2.14c-0.15-.4-0.26-0.8-0.36-1.19a3.6,3.6,0,0,0-.68-1.64h0a3.56,3.56,0,0,0-1.75-.14c-0.41,0-.82,0-1.25,0a4.92,4.92,0,0,1-1.33-.22h0a4.71,4.71,0,0,1-1.17-.59c-0.33-.22-0.65-0.48-1-0.74h0a3.51,3.51,0,0,0-1.57-.94,1.3,1.3,0,0,0-.62.24h0a9.76,9.76,0,0,0-.95.71h0a6.86,6.86,0,0,1-2.14,1.33,7,7,0,0,1-2.55.2h0a3.56,3.56,0,0,0-1.75.14h0a3.6,3.6,0,0,0-.68,1.64c-0.11.39-.21,0.79-0.36,1.19a4.83,4.83,0,0,1-.62,1.19h0a7,7,0,0,1-1.94,1.64h0a9.81,9.81,0,0,0-1,.67,1.27,1.27,0,0,0-.41.5h0a0.58,0.58,0,0,0,0,.22,2.4,2.4,0,0,0,.09.45C5272.67,3707,5272.79,3707.33,5272.91,3707.66Z" transform="translate(-5232 -3657.66)"/></svg>