<svg id="Layer_1" data-name="Layer 1" xmlns="http://www.w3.org/2000/svg" viewBox="0 0 190.8 190.8"><defs><style>.cls-1{fill:#606062;fill-rule:evenodd;}.cls-2{fill:#fefefe;}</style></defs><title>setinblock</title><polygon class="cls-1" points="0 0 190.8 0 190.8 190.8 0 190.8 0 0 0 0"/><path class="cls-2" d="M243.69,369.78a17.43,17.43,0,0,1-5.91-1,15.62,15.62,0,0,1-5.27-3.18l3.42-4.1a17.25,17.25,0,0,0,3.71,2.33,9.92,9.92,0,0,0,4.16.87,5.06,5.06,0,0,0,2.8-.66,2.07,2.07,0,0,0,1-1.82V362.1a2.29,2.29,0,0,0-.21-1,2.09,2.09,0,0,0-.79-0.81,8.6,8.6,0,0,0-1.62-.75c-0.69-.25-1.59-0.51-2.7-0.79a33,33,0,0,1-3.62-1.09,10.19,10.19,0,0,1-2.75-1.49,6,6,0,0,1-1.76-2.2,7.67,7.67,0,0,1-.62-3.27v-0.07a7.68,7.68,0,0,1,.67-3.25,7.45,7.45,0,0,1,1.89-2.5,8.5,8.5,0,0,1,2.9-1.62,11.64,11.64,0,0,1,3.72-.56,15.75,15.75,0,0,1,5.32.87,15.42,15.42,0,0,1,4.46,2.48l-3,4.36a19,19,0,0,0-3.46-1.9,8.84,8.84,0,0,0-3.38-.7,4.09,4.09,0,0,0-2.54.66,2,2,0,0,0-.85,1.64v0.08a2.37,2.37,0,0,0,.24,1.11,2.22,2.22,0,0,0,.88.85,8.49,8.49,0,0,0,1.75.71c0.75,0.23,1.68.49,2.81,0.79a26.64,26.64,0,0,1,3.57,1.19,10,10,0,0,1,2.64,1.58,6,6,0,0,1,1.62,2.16,7.36,7.36,0,0,1,.55,3v0.08a8.19,8.19,0,0,1-.71,3.48,7.18,7.18,0,0,1-2,2.56,8.94,8.94,0,0,1-3,1.58,13.16,13.16,0,0,1-3.91.55h0Zm14.67-26.71h19.83v5.15H264.08v5.34h12.41v5.15H264.08v5.53h14.29v5.15h-20V343.07h0Zm31.34,5.34h-8v-5.34H303.5v5.34h-8v21h-5.79v-21h0Zm-55.15,36.23h5.79V411h-5.79V384.64h0Zm12.38,0h5.34l12.34,16.21V384.64h5.72V411h-4.93l-12.75-16.74V411h-5.72V384.64h0Zm-0.11,62.82a5.56,5.56,0,0,0,3-.7,2.38,2.38,0,0,0,1.09-2.16v-0.08a2.48,2.48,0,0,0-1-2.09,5.47,5.47,0,0,0-3.27-.77h-6.7v5.79h6.88Zm-1.54-10.61a6,6,0,0,0,3-.66,2.27,2.27,0,0,0,1.13-2.13V434a2.32,2.32,0,0,0-1-2,4.83,4.83,0,0,0-2.82-.7h-5.72v5.57h5.34Zm-11-10.65h12.21q4.54,0,6.87,2.33a6.1,6.1,0,0,1,1.8,4.48v0.08a6.45,6.45,0,0,1-.28,2,6.18,6.18,0,0,1-.75,1.56,6,6,0,0,1-1.08,1.22,7.27,7.27,0,0,1-1.32.9,8.89,8.89,0,0,1,3.59,2.35,6,6,0,0,1,1.31,4.12v0.08a6.81,6.81,0,0,1-.7,3.16,6.18,6.18,0,0,1-2,2.26,9.37,9.37,0,0,1-3.12,1.35,16.85,16.85,0,0,1-4,.45H234.28V426.2h0Zm27.16,0h5.79v21.1h13.13v5.23H261.44V426.2h0Zm36.15,21.44a7.91,7.91,0,0,0,3.2-.64,7.3,7.3,0,0,0,2.5-1.77,8.3,8.3,0,0,0,1.62-2.61,8.6,8.6,0,0,0,.58-3.18v-0.08a8.75,8.75,0,0,0-.58-3.2,7.88,7.88,0,0,0-4.19-4.42,7.72,7.72,0,0,0-3.2-.66,7.88,7.88,0,0,0-3.22.64,7.35,7.35,0,0,0-2.48,1.77,8.32,8.32,0,0,0-1.62,2.61,8.63,8.63,0,0,0-.58,3.18v0.08a8.77,8.77,0,0,0,.58,3.2,7.93,7.93,0,0,0,1.66,2.63,8,8,0,0,0,2.52,1.79,7.68,7.68,0,0,0,3.22.66h0ZM297.52,453a14.36,14.36,0,0,1-5.61-1.07,13.93,13.93,0,0,1-4.42-2.9,13,13,0,0,1-2.9-4.29,13.52,13.52,0,0,1-1-5.29v-0.08a13.32,13.32,0,0,1,1.05-5.29,13.47,13.47,0,0,1,7.36-7.26,15.24,15.24,0,0,1,11.23,0,13.93,13.93,0,0,1,4.42,2.9,12.94,12.94,0,0,1,2.9,4.29,13.5,13.5,0,0,1,1,5.29v0.08a13.29,13.29,0,0,1-1.05,5.29,13.46,13.46,0,0,1-7.35,7.26,14.49,14.49,0,0,1-5.62,1.07h0ZM329,453a13.63,13.63,0,0,1-5.38-1.05,13,13,0,0,1-7.11-7.19,13.88,13.88,0,0,1-1-5.3v-0.08a13.68,13.68,0,0,1,3.84-9.61,13.09,13.09,0,0,1,4.33-2.93,14.09,14.09,0,0,1,5.57-1.07,17.41,17.41,0,0,1,3.37.3,14.05,14.05,0,0,1,2.76.83,12,12,0,0,1,2.29,1.28,15.43,15.43,0,0,1,2,1.66L336,434.07a14,14,0,0,0-3.14-2.18,8,8,0,0,0-3.59-.79,7.29,7.29,0,0,0-5.49,2.41,8.25,8.25,0,0,0-1.58,2.61,8.88,8.88,0,0,0-.56,3.18v0.08a9,9,0,0,0,.56,3.2,8.35,8.35,0,0,0,1.56,2.63,7.23,7.23,0,0,0,5.51,2.45,8.07,8.07,0,0,0,3.82-.83,14.81,14.81,0,0,0,3.1-2.26l3.69,3.72a19,19,0,0,1-2.11,2,12.29,12.29,0,0,1-5.23,2.43A17.12,17.12,0,0,1,329,453h0Zm15.42-26.78h5.79v11.51l10.68-11.51h7l-10.72,11.17,11.21,15.16h-7l-8.16-11.21-3,3.16v8.05h-5.79V426.2h0Z" transform="translate(-210 -301)"/></svg>